<svg xmlns="http://www.w3.org/2000/svg" version="1.1" xmlns:xlink="http://www.w3.org/1999/xlink" xmlns:svgjs="http://svgjs.dev/svgjs" width="311.59260948905103" height="304.9156249999999"><svg width="311.59260948905103" height="304.9156249999999" viewBox="0 0 140 137" class="looka-1j8o68f"><defs id="SvgjsDefs1005"></defs><g id="SvgjsG1004" featurekey="rootContainer" transform="matrix(1,0,0,1,0,0)" fill="#111111"><rect xmlns="http://www.w3.org/2000/svg" width="140" height="137" rx="10" ry="10"></rect></g><g id="SvgjsG1003" featurekey="q4o0QG-0" transform="matrix(6.47668411384228,0,0,6.47668411384228,16.373055722685336,-13.419692127486243)" fill="#f6f6f6"><path d="M5.64 8.2 l-1.28 -0.22 l-0.22 10.62 l1.26 0.04 l0.32 -0.3 l0.3 -6.22 l-0.02 -2.28 z M0.7 5.34 l0.64 0 l1.62 -0.04 c0.74 -0.02 1.74 -0.04 1.98 0.02 c0.4 0.06 0.78 0.2 1.24 0.34 c0.24 0.08 0.48 0.18 0.72 0.28 l1.14 1.74 c0.02 1.26 0.04 2.44 0.08 3.56 c0 1.92 -0.02 4.02 -0.08 4.92 c-0.22 0.62 -0.26 1.14 -0.26 1.52 c-0.04 0.22 -0.08 0.42 -0.14 0.6 l-1.08 1.6 l-2.34 0.12 l-3.66 0 z M13.06 5.18 l-0.06 13.02 l1.6 -0.22 l1.4 0.04 l-0.06 1.88 l-1.2 0.16 l-5.12 -0.04 l-0.26 -13.42 l0.3 -1.44 z"></path></g></svg><style>@media (prefers-color-scheme: light) { :root { filter: none; } }
@media (prefers-color-scheme: dark) { :root { filter: none; } }
</style></svg>